{
 "cells": [
  {
   "cell_type": "code",
   "execution_count": 11,
   "id": "5fdc0e49",
   "metadata": {
    "scrolled": false
   },
   "outputs": [
    {
     "name": "stderr",
     "output_type": "stream",
     "text": [
      "ffmpeg version 5.1.2-3ubuntu1 Copyright (c) 2000-2022 the FFmpeg developers\n",
      "  built with gcc 12 (Ubuntu 12.2.0-14ubuntu2)\n",
      "  configuration: --prefix=/usr --extra-version=3ubuntu1 --toolchain=hardened --libdir=/usr/lib/x86_64-linux-gnu --incdir=/usr/include/x86_64-linux-gnu --arch=amd64 --enable-gpl --disable-stripping --enable-gnutls --enable-ladspa --enable-libaom --enable-libass --enable-libbluray --enable-libbs2b --enable-libcaca --enable-libcdio --enable-libcodec2 --enable-libdav1d --enable-libflite --enable-libfontconfig --enable-libfreetype --enable-libfribidi --enable-libglslang --enable-libgme --enable-libgsm --enable-libjack --enable-libmp3lame --enable-libmysofa --enable-libopenjpeg --enable-libopenmpt --enable-libopus --enable-libpulse --enable-librabbitmq --enable-librist --enable-librubberband --enable-libshine --enable-libsnappy --enable-libsoxr --enable-libspeex --enable-libsrt --enable-libssh --enable-libsvtav1 --enable-libtheora --enable-libtwolame --enable-libvidstab --enable-libvorbis --enable-libvpx --enable-libwebp --enable-libx265 --enable-libxml2 --enable-libxvid --enable-libzimg --enable-libzmq --enable-libzvbi --enable-lv2 --enable-omx --enable-openal --enable-opencl --enable-opengl --enable-sdl2 --disable-sndio --enable-libjxl --enable-pocketsphinx --enable-librsvg --enable-libmfx --enable-libdc1394 --enable-libdrm --enable-libiec61883 --enable-chromaprint --enable-frei0r --enable-libx264 --enable-libplacebo --enable-librav1e --enable-shared\n",
      "  WARNING: library configuration mismatch\n",
      "  avcodec     configuration: --prefix=/usr --extra-version=3ubuntu1 --toolchain=hardened --libdir=/usr/lib/x86_64-linux-gnu --incdir=/usr/include/x86_64-linux-gnu --arch=amd64 --enable-gpl --disable-stripping --enable-gnutls --enable-ladspa --enable-libaom --enable-libass --enable-libbluray --enable-libbs2b --enable-libcaca --enable-libcdio --enable-libcodec2 --enable-libdav1d --enable-libflite --enable-libfontconfig --enable-libfreetype --enable-libfribidi --enable-libglslang --enable-libgme --enable-libgsm --enable-libjack --enable-libmp3lame --enable-libmysofa --enable-libopenjpeg --enable-libopenmpt --enable-libopus --enable-libpulse --enable-librabbitmq --enable-librist --enable-librubberband --enable-libshine --enable-libsnappy --enable-libsoxr --enable-libspeex --enable-libsrt --enable-libssh --enable-libsvtav1 --enable-libtheora --enable-libtwolame --enable-libvidstab --enable-libvorbis --enable-libvpx --enable-libwebp --enable-libx265 --enable-libxml2 --enable-libxvid --enable-libzimg --enable-libzmq --enable-libzvbi --enable-lv2 --enable-omx --enable-openal --enable-opencl --enable-opengl --enable-sdl2 --disable-sndio --enable-libjxl --enable-pocketsphinx --enable-librsvg --enable-libmfx --enable-libdc1394 --enable-libdrm --enable-libiec61883 --enable-chromaprint --enable-frei0r --enable-libx264 --enable-libplacebo --enable-librav1e --enable-shared --enable-version3 --disable-doc --disable-programs --enable-libaribb24 --enable-libopencore_amrnb --enable-libopencore_amrwb --enable-libtesseract --enable-libvo_amrwbenc --enable-libsmbclient\n",
      "  libavutil      57. 28.100 / 57. 28.100\n",
      "  libavcodec     59. 37.100 / 59. 37.100\n",
      "  libavformat    59. 27.100 / 59. 27.100\n",
      "  libavdevice    59.  7.100 / 59.  7.100\n",
      "  libavfilter     8. 44.100 /  8. 44.100\n",
      "  libswscale      6.  7.100 /  6.  7.100\n",
      "  libswresample   4.  7.100 /  4.  7.100\n",
      "  libpostproc    56.  6.100 / 56.  6.100\n",
      "Input #0, mov,mp4,m4a,3gp,3g2,mj2, from 'my_video.mp4':\n",
      "  Metadata:\n",
      "    major_brand     : mp42\n",
      "    minor_version   : 0\n",
      "    compatible_brands: isommp42\n",
      "    creation_time   : 2023-04-05T11:52:01.000000Z\n",
      "  Duration: 00:04:31.35, start: 0.000000, bitrate: 657 kb/s\n",
      "  Stream #0:0[0x1](und): Video: h264 (Main) (avc1 / 0x31637661), yuv420p(tv, bt709, progressive), 1280x720 [SAR 1:1 DAR 16:9], 525 kb/s, 30 fps, 30 tbr, 15360 tbn (default)\n",
      "    Metadata:\n",
      "      creation_time   : 2023-04-05T11:52:01.000000Z\n",
      "      handler_name    : ISO Media file produced by Google Inc. Created on: 04/05/2023.\n",
      "      vendor_id       : [0][0][0][0]\n",
      "  Stream #0:1[0x2](eng): Audio: aac (LC) (mp4a / 0x6134706D), 44100 Hz, stereo, fltp, 127 kb/s (default)\n",
      "    Metadata:\n",
      "      creation_time   : 2023-04-05T11:52:01.000000Z\n",
      "      handler_name    : ISO Media file produced by Google Inc. Created on: 04/05/2023.\n",
      "      vendor_id       : [0][0][0][0]\n",
      "File 'trimmed_video.mp4' already exists. Overwrite? [y/N] Not overwriting - exiting\n"
     ]
    },
    {
     "data": {
      "text/plain": [
       "256"
      ]
     },
     "execution_count": 11,
     "metadata": {},
     "output_type": "execute_result"
    }
   ],
   "source": [
    "from pytube import YouTube\n",
    "import os\n",
    "import cv2\n",
    "import numpy as np\n",
    "\n",
    "# Set the URL of the video you want to download\n",
    "url = \"https://www.youtube.com/watch?v=FixSndBpTyk&ab_channel=%D9%82%D9%86%D8%A7%D8%A9%D9%86%D8%B5%D8%B1%D8%A7%D9%84%D8%BA%D8%A7%D9%81%D8%B1%D9%8A\"\n",
    "\n",
    "# Create a new YouTube object\n",
    "yt = YouTube(url)\n",
    "\n",
    "video = yt.streams.get_highest_resolution()\n",
    "video.download(filename='my_video.mp4')\n",
    "\n",
    "os.system('ffmpeg -i my_video.mp4 -ss 0 -t 60 -c copy trimmed_video.mp4')"
   ]
  },
  {
   "cell_type": "code",
   "execution_count": 22,
   "id": "d0173b1b",
   "metadata": {},
   "outputs": [],
   "source": [
    "# extrract blue\n",
    "hsv_lower = np.array([100, 100, 100])\n",
    "hsv_upper = np.array([140, 255, 255])\n",
    "\n",
    "cap = cv2.VideoCapture('trimmed_video.mp4')\n",
    "\n",
    "if not cap.isOpened():\n",
    "    print(\"Error: Couldn't open the video\")\n",
    "    exit()\n",
    "while True:\n",
    "    ret, frame=cap.read()\n",
    "    \n",
    "    if not ret:\n",
    "        print(\"Error: Couldn't read video frame\")\n",
    "        exit()\n",
    "        break\n",
    "    \n",
    "    hsv_frame = cv2.cvtColor(frame, cv2.COLOR_BGR2HSV)\n",
    "    \n",
    "    extracted_frame = cv2.inRange(hsv_frame, hsv_lower, hsv_upper)\n",
    "    \n",
    "    masked_frame= cv2.bitwise_and(frame, frame, mask=extracted_frame)\n",
    "    \n",
    "    \n",
    "    cv2.imshow('Frame', masked_frame)\n",
    "    \n",
    "    key = cv2.waitKey(10)\n",
    "    if key == ord('q'):\n",
    "        break\n",
    "\n",
    "cap.release()\n",
    "\n",
    "cv2.destroyAllWindows()"
   ]
  },
  {
   "cell_type": "code",
   "execution_count": null,
   "id": "cbad33dd",
   "metadata": {},
   "outputs": [],
   "source": []
  },
  {
   "cell_type": "markdown",
   "id": "aa249f7d",
   "metadata": {},
   "source": []
  },
  {
   "cell_type": "code",
   "execution_count": null,
   "id": "27f33dd1",
   "metadata": {},
   "outputs": [],
   "source": []
  }
 ],
 "metadata": {
  "kernelspec": {
   "display_name": "Python 3 (ipykernel)",
   "language": "python",
   "name": "python3"
  },
  "language_info": {
   "codemirror_mode": {
    "name": "ipython",
    "version": 3
   },
   "file_extension": ".py",
   "mimetype": "text/x-python",
   "name": "python",
   "nbconvert_exporter": "python",
   "pygments_lexer": "ipython3",
   "version": "3.11.4"
  }
 },
 "nbformat": 4,
 "nbformat_minor": 5
}
